<svg width="96px" height="96px" viewBox="0 0 96 96" version="1.1" xmlns="http://www.w3.org/2000/svg" xmlns:xlink="http://www.w3.org/1999/xlink">
    <g stroke="none" stroke-width="1" fill="none" fill-rule="evenodd">
        <g transform="translate(-0.062988, 0.000000)">
            <rect fill="#2B80FF" x="0.0629882812" y="0" width="96" height="96"></rect>
            <g transform="translate(0.000000, 47.965820)" fill="#FFFFFF" fill-rule="nonzero">
                <polygon points="21.9951172 37.5791016 50.5493164 37.5791016 50.5493164 48.0341797 0 48.0341797 31.1186523 10.3564453 6.60839844 10.3564453 6.60839844 0 53.0644531 0"></polygon>
            </g>
            <g transform="translate(50.065918, 47.965820)" fill="#FFFFFF" fill-rule="nonzero">
                <path d="M11.0961914,0 L11.0961914,27.5678711 C11.0961914,35.5242513 14.2360026,39.5024414 20.515625,39.5024414 C26.7952474,39.5024414 29.9350586,35.5242513 29.9350586,27.5678711 L29.9350586,0 L41.03125,0 L41.03125,27.8144531 C41.03125,31.6611328 40.5545247,34.9817708 39.6010742,37.7763672 C38.6805013,40.2750651 37.0859375,42.527181 34.8173828,44.5327148 C31.0693359,47.7875977 26.3020833,49.4150391 20.515625,49.4150391 C14.7620443,49.4150391 10.0112305,47.7875977 6.26318359,44.5327148 C3.9617513,42.527181 2.3343099,40.2750651 1.38085938,37.7763672 C0.460286458,35.5406901 0,32.2200521 0,27.8144531 L0,0 L11.0961914,0 Z"></path>
            </g>
            <g transform="translate(78.294629, 19.353516)" fill="#FF4F9E" fill-rule="nonzero">
                <path d="M13.0258789,27.6611328 L13.0258789,76.6464844 L1.70996094,76.6464844 L1.70996094,27.6611328 L13.0258789,27.6611328 Z M0,7.29248047 C0,5.31429036 0.720865885,3.60432943 2.16259766,2.16259766 C3.60432943,0.720865885 5.33105469,0 7.34277344,0 C9.38802083,0 11.1315104,0.720865885 12.5732422,2.16259766 C14.014974,3.57080078 14.7358398,5.29752604 14.7358398,7.34277344 C14.7358398,9.38802083 14.014974,11.1315104 12.5732422,12.5732422 C11.1650391,14.014974 9.4383138,14.7358398 7.39306641,14.7358398 C5.34781901,14.7358398 3.60432943,14.014974 2.16259766,12.5732422 C0.720865885,11.1315104 0,9.37125651 0,7.29248047 Z"></path>
            </g>
        </g>
    </g>
</svg>
