<?xml version="1.0" encoding="UTF-8"?>
<svg width="96px" height="96px" viewBox="0 0 96 96" version="1.1" xmlns="http://www.w3.org/2000/svg" xmlns:xlink="http://www.w3.org/1999/xlink">
    <title>画板</title>
    <defs>
        <path d="M0,0 L49.8500664,1.86451255e-15 C65.8974037,-1.08333549e-15 71.716556,1.670861 77.5832227,4.80838867 C83.4498893,7.94591634 88.0540837,12.5501107 91.1916113,18.4167773 C94.329139,24.283444 96,30.1025963 96,46.1499336 L96,96 L96,96 L46.1499336,96 C30.1025963,96 24.283444,94.329139 18.4167773,91.1916113 C12.5501107,88.0540837 7.94591634,83.4498893 4.80838867,77.5832227 C1.670861,71.716556 7.22223659e-16,65.8974037 -1.24300837e-15,49.8500664 L0,0 L0,0 Z" id="path-1"></path>
        <linearGradient x1="50%" y1="0%" x2="50%" y2="99.2137135%" id="linearGradient-2">
            <stop stop-color="#2B80FF" stop-opacity="0.5" offset="0%"></stop>
            <stop stop-color="#009EFF" stop-opacity="0.5" offset="100%"></stop>
        </linearGradient>
        <path d="M0,0 L34.4667552,2.48601674e-15 C55.863205,-1.44444732e-15 63.6220747,2.22781467 71.4442969,6.41118489 C79.2665191,10.5945551 85.4054449,16.7334809 89.5888151,24.5557031 C93.7721853,32.3779253 96,40.136795 96,61.5332448 L96,96 L96,96 L61.5332448,96 C40.136795,96 32.3779253,93.7721853 24.5557031,89.5888151 C16.7334809,85.4054449 10.5945551,79.2665191 6.41118489,71.4442969 C2.22781467,63.6220747 9.62964878e-16,55.863205 -1.65734449e-15,34.4667552 L0,0 L0,0 Z" id="path-3"></path>
    </defs>
    <g id="画板" stroke="none" stroke-width="1" fill="none" fill-rule="evenodd">
        <g id="编组">
            <g id="矩形">
                <use fill="#2B80FF" xlink:href="#path-1"></use>
                <use fill-opacity="0.2" fill="#000000" xlink:href="#path-1"></use>
            </g>
            <g id="矩形备份-2">
                <use fill="#2B80FF" xlink:href="#path-3"></use>
                <use fill="url(#linearGradient-2)" xlink:href="#path-3"></use>
            </g>
        </g>
        <g id="编组-2" transform="translate(28.000000, -7.000000)" fill-rule="nonzero">
            <g id="z备份" opacity="0.300000012" transform="translate(3.353516, 35.292969)" fill="#100000">
                <polygon id="路径" points="38.5957031 44.7070312 0 44.7070312 0 35.6015625 22.9277344 9.515625 1.55859375 9.515625 1.55859375 0 37.8164062 0 37.8164062 9.72070312 15.1347656 35.109375 38.5957031 35.109375"></polygon>
            </g>
            <g id="z备份-3" transform="translate(0.353516, 32.292969)" fill="#FFFFFF">
                <polygon id="路径" points="38.5957031 44.7070312 0 44.7070312 0 35.6015625 22.9277344 9.515625 1.55859375 9.515625 1.55859375 0 37.8164062 0 37.8164062 9.72070312 15.1347656 35.109375 38.5957031 35.109375"></polygon>
            </g>
        </g>
    </g>
</svg>